<svg width="375" height="418" viewBox="0 0 375 418" fill="none" xmlns="http://www.w3.org/2000/svg">
<mask id="mask0_519_369" style="mask-type:alpha" maskUnits="userSpaceOnUse" x="0" y="0" width="375" height="418">
<rect width="375" height="418" fill="#7800FF"/>
</mask>
<g mask="url(#mask0_519_369)">
<path d="M-22.1307 -117.367C-22.5565 -123.057 -25.3883 -128.245 -29.8578 -131.807C-34.3287 -135.368 -40.0967 -137.009 -45.8671 -136.369C-51.6376 -135.73 -56.9068 -132.867 -60.4898 -128.414C-64.0714 -123.96 -65.6991 -118.278 -64.8693 -112.633C-64.8693 -112.633 -64.8693 -112.633 -64.8693 -112.633C-62.6235 -97.9521 -59.8672 -83.3576 -56.9008 -69.0318C-46.1841 -18.9594 -33.3931 30.8941 -9.91247 78.55C2.28527 101.739 16.654 126.778 44.6342 141.945C74.4182 158.362 109.63 143.907 129.877 126.632C147.192 112.226 168.547 111.521 189.944 121.781C294.375 186.82 345.474 323.484 383.613 444.63C387.378 457.839 391.563 472.61 394.246 485.032C397.478 498.653 407.493 508.748 420.497 513.778C433.517 518.801 448.742 518.228 462.541 512.305C476.34 506.382 487.243 495.74 492.57 482.841C497.882 469.949 497.462 455.735 489.814 444.01C481.468 431.05 473.006 418.372 464.792 406.237C384.848 296.333 323.703 173.448 201.763 96.3973C175.73 82.6581 136.584 83.12 112.2 104.239C94.0318 118.597 74.4577 124.653 58.527 115.351C42.0289 106.297 28.934 85.5028 19.2829 64.4457C-0.0780602 21.2039 -10.3081 -27.5866 -17.4035 -75.9636C-19.3445 -89.6841 -21.1131 -104.392 -22.1307 -117.367Z" fill="white"/>
</g>
</svg>
