<svg width="1460" height="667" viewBox="0 0 1460 667" fill="none" xmlns="http://www.w3.org/2000/svg">
<mask id="mask0_519_383" style="mask-type:alpha" maskUnits="userSpaceOnUse" x="0" y="0" width="1460" height="667">
<rect width="1460" height="667" fill="#7800FF"/>
</mask>
<g mask="url(#mask0_519_383)">
<path d="M-693.3 -1058.15C-704.523 -1078.36 -724.032 -1092.15 -746.672 -1097.05C-769.321 -1101.94 -793.398 -1097.43 -813.454 -1084.62C-833.51 -1071.81 -847.717 -1051.85 -852.798 -1029.25C-857.869 -1006.64 -853.551 -983.144 -839.929 -964.466C-839.929 -964.466 -839.929 -964.466 -839.929 -964.466C-801.398 -911.913 -761.599 -858.515 -722.093 -805.833C-361.852 -355.066 -59.4531 151.24 440.145 485.491C470.692 497.949 503.428 508.062 542.09 501.81C580.982 495.666 612.522 466.938 629.512 434.282C686.222 331.696 844.772 361.71 961.661 400.18C1086.26 442.007 1203.47 503.908 1317.42 572.92C1544.58 712.102 1754.09 880.532 1950.74 1064.6C1997.4 1108.67 2045.98 1155.56 2086.83 1199.36C2127.66 1241.77 2185.51 1255.98 2243.06 1245.37C2300.66 1234.69 2354.05 1198.93 2390.67 1147.09C2427.29 1095.25 2443.16 1032.98 2433.97 975.127C2424.74 917.341 2392.01 867.56 2338.4 843.253C2338.4 843.253 2338.4 843.253 2338.4 843.253C2274.61 813.793 2213.16 786.874 2151.08 759.492C1893.81 646.795 1641.47 536.682 1382.46 438.674C1252.45 390.284 1122.69 344.818 984.572 314.829C915.897 300.604 845.948 289.715 772.049 294.838C700.255 298.595 612.927 331.411 577.304 406.839C556.708 452.454 512.708 455.851 461.836 433.862C0.402846 125.034 -296.931 -411.222 -596.379 -889.832C-629.403 -945.754 -662.912 -1003.45 -693.3 -1058.15Z" fill="white"/>
</g>
</svg>
