<svg width="145" height="36" viewBox="0 0 145 36" fill="none" xmlns="http://www.w3.org/2000/svg">
<path d="M10.8241 19.9773L8.33545 34.9091H0.000224724L4.36386 8.72727H12.29L11.5059 13.5341H11.7957C12.6139 11.9318 13.8014 10.6761 15.3582 9.76704C16.915 8.84659 18.665 8.38636 20.6082 8.38636C22.4377 8.38636 23.9661 8.79545 25.1934 9.61363C26.4207 10.4318 27.29 11.5795 27.8014 13.0568C28.3127 14.5227 28.398 16.2443 28.057 18.2216L25.2616 34.9091H16.9264L19.432 19.858C19.682 18.4148 19.5059 17.2841 18.9036 16.4659C18.3127 15.6364 17.3468 15.2216 16.0059 15.2216C15.1309 15.2216 14.3298 15.4148 13.6025 15.8011C12.8866 16.1761 12.2843 16.7159 11.7957 17.4205C11.3184 18.125 10.9945 18.9773 10.8241 19.9773ZM27.491 34.9091L33.2864 -3.8147e-06H41.6216L39.4569 13.2102H39.6273C40.0819 12.4148 40.6841 11.6477 41.4341 10.9091C42.1955 10.1705 43.1103 9.56818 44.1785 9.10227C45.2466 8.625 46.4682 8.38636 47.8432 8.38636C49.6614 8.38636 51.2807 8.86363 52.7012 9.81818C54.1216 10.7727 55.1557 12.2443 55.8035 14.233C56.4512 16.2216 56.5194 18.7557 56.008 21.8352C55.5194 24.8011 54.6387 27.2841 53.366 29.2841C52.0932 31.2841 50.5762 32.7841 48.8148 33.7841C47.0648 34.7841 45.2239 35.2841 43.2921 35.2841C41.9739 35.2841 40.866 35.0682 39.9682 34.6364C39.0819 34.2045 38.3716 33.6364 37.8376 32.9318C37.3148 32.2273 36.9512 31.4716 36.7466 30.6648H36.4228L35.741 34.9091H27.491ZM37.8376 21.8182C37.6103 23.2273 37.5989 24.4545 37.8035 25.5C38.0194 26.5455 38.4341 27.358 39.0478 27.9375C39.6728 28.5057 40.4966 28.7898 41.5194 28.7898C42.5421 28.7898 43.4569 28.5057 44.2637 27.9375C45.0705 27.358 45.7466 26.5455 46.2921 25.5C46.8376 24.4545 47.2239 23.2273 47.4512 21.8182C47.6785 20.4091 47.6898 19.1875 47.4853 18.1534C47.2921 17.1193 46.8887 16.3182 46.2751 15.75C45.6614 15.1818 44.8376 14.8977 43.8035 14.8977C42.7807 14.8977 41.8603 15.1761 41.0421 15.733C40.2353 16.2898 39.5535 17.0852 38.9966 18.1193C38.4512 19.1534 38.0648 20.3864 37.8376 21.8182ZM74.4561 8.72727L73.4164 14.8636H56.8993L57.9391 8.72727H74.4561ZM62.422 2.45454H70.7573L66.7345 26.6761C66.655 27.1875 66.6664 27.6023 66.7686 27.9205C66.8823 28.2273 67.0868 28.4489 67.3823 28.5852C67.6891 28.7102 68.0641 28.7727 68.5073 28.7727C68.8141 28.7727 69.155 28.7386 69.53 28.6705C69.905 28.6023 70.1891 28.5511 70.3823 28.517L70.655 34.5341C70.2118 34.6591 69.6152 34.8011 68.8652 34.9602C68.1266 35.1307 67.263 35.2386 66.2743 35.2841C64.2743 35.3636 62.6209 35.1307 61.3141 34.5852C60.0186 34.0284 59.1039 33.1648 58.5698 31.9943C58.047 30.8239 57.9448 29.358 58.2629 27.5966L62.422 2.45454ZM71.4653 34.9091L75.829 8.72727H83.9256L83.1244 13.5H83.3972C84.1585 11.7727 85.1528 10.4886 86.3801 9.64772C87.6074 8.79545 88.9369 8.36932 90.3687 8.36932C90.7551 8.36932 91.1415 8.39772 91.5278 8.45454C91.9256 8.5 92.3006 8.56818 92.6528 8.65909L91.4256 15.9205C91.0392 15.7727 90.5335 15.6648 89.9085 15.5966C89.2835 15.517 88.7153 15.4773 88.204 15.4773C87.2153 15.4773 86.2949 15.6989 85.4426 16.142C84.6017 16.5739 83.8858 17.1818 83.2949 17.9659C82.7153 18.7386 82.3347 19.6477 82.1528 20.6932L79.8006 34.9091H71.4653ZM99.6635 19.9773L97.1748 34.9091H88.8396L93.2032 8.72727H101.129L100.345 13.5341H100.635C101.453 11.9318 102.641 10.6761 104.198 9.76704C105.754 8.84659 107.504 8.38636 109.448 8.38636C111.277 8.38636 112.806 8.79545 114.033 9.61363C115.26 10.4318 116.129 11.5795 116.641 13.0568C117.152 14.5227 117.237 16.2443 116.896 18.2216L114.101 34.9091H105.766L108.271 19.858C108.521 18.4148 108.345 17.2841 107.743 16.4659C107.152 15.6364 106.186 15.2216 104.845 15.2216C103.97 15.2216 103.169 15.4148 102.442 15.8011C101.726 16.1761 101.124 16.7159 100.635 17.4205C100.158 18.125 99.8339 18.9773 99.6635 19.9773ZM127.785 8.72727L130.649 17.3523L136.563 8.72727H144.967L135.472 21.8182L140.876 34.9091H132.541L129.166 26.2159L123.046 34.9091H114.592L124.376 21.8182L119.33 8.72727H127.785Z" fill="white"/>
</svg>
