<svg width="1069" height="278" viewBox="0 0 1069 278" fill="none" xmlns="http://www.w3.org/2000/svg">
<path d="M83.0255 13.4233L49.2187 217.06H-9.42796e-05L33.8067 13.4233H83.0255ZM126.755 129.957L112.238 217.06H63.6154L89.0699 64.3324H135.306L130.732 92.3721H132.422C137.195 83.0255 144.122 75.7007 153.203 70.3977C162.285 65.0284 172.493 62.3437 183.828 62.3437C194.501 62.3437 203.417 64.7301 210.576 69.5028C217.735 74.2755 222.806 80.9706 225.789 89.588C228.772 98.1392 229.269 108.182 227.28 119.716L210.973 217.06H162.351L176.968 129.261C178.426 120.843 177.399 114.247 173.885 109.474C170.438 104.635 164.804 102.216 156.982 102.216C151.878 102.216 147.204 103.343 142.962 105.597C138.786 107.784 135.273 110.933 132.422 115.043C129.638 119.152 127.749 124.124 126.755 129.957ZM335.64 64.3324L329.575 100.128H233.225L239.291 64.3324H335.64ZM265.441 27.7414H314.063L290.597 169.034C290.133 172.017 290.2 174.437 290.796 176.293C291.459 178.082 292.652 179.375 294.376 180.17C296.166 180.9 298.353 181.264 300.938 181.264C302.728 181.264 304.717 181.065 306.904 180.668C309.092 180.27 310.749 179.972 311.876 179.773L313.467 214.872C310.881 215.601 307.401 216.43 303.026 217.358C298.718 218.352 293.68 218.982 287.913 219.247C276.246 219.711 266.601 218.352 258.978 215.17C251.421 211.922 246.085 206.884 242.97 200.057C239.92 193.229 239.324 184.678 241.18 174.403L265.441 27.7414ZM387.547 219.943C371.572 219.943 358.314 216.794 347.775 210.497C337.301 204.133 329.943 195.085 325.701 183.352C321.458 171.553 320.696 157.533 323.414 141.293C326.065 125.516 331.468 111.728 339.621 99.9289C347.841 88.0634 358.182 78.8494 370.644 72.2869C383.106 65.6581 396.993 62.3437 412.306 62.3437C423.177 62.3437 432.822 64.0341 441.241 67.4147C449.659 70.7954 456.619 75.8333 462.121 82.5284C467.623 89.1572 471.368 97.3106 473.357 106.989C475.346 116.667 475.279 127.77 473.158 140.298L471.269 152.429H338.627L343.101 124.19H430.601C431.397 119.02 430.966 114.413 429.309 110.369C427.652 106.326 424.967 103.177 421.255 100.923C417.609 98.6032 413.134 97.4432 407.831 97.4432C402.462 97.4432 397.424 98.7026 392.718 101.222C388.078 103.674 384.134 106.989 380.885 111.165C377.637 115.341 375.516 120.047 374.522 125.284L369.252 154.219C368.191 160.649 368.49 166.151 370.147 170.724C371.804 175.298 374.654 178.812 378.698 181.264C382.741 183.651 387.945 184.844 394.309 184.844C398.551 184.844 402.528 184.28 406.241 183.153C409.953 181.96 413.267 180.204 416.184 177.883C419.167 175.497 421.586 172.614 423.442 169.233L467.789 170.526C464.209 180.535 458.674 189.252 451.184 196.676C443.693 204.034 434.545 209.768 423.741 213.878C413.002 217.921 400.938 219.943 387.547 219.943ZM530.112 277.514C515.528 277.514 503.398 275.492 493.72 271.449C484.042 267.405 476.816 261.87 472.044 254.844C467.271 247.817 464.984 239.863 465.183 230.98L511.717 228.395C512.115 231.577 513.275 234.328 515.197 236.648C517.119 238.968 519.87 240.724 523.45 241.918C527.029 243.177 531.471 243.807 536.774 243.807C544.927 243.807 552.02 241.818 558.052 237.841C564.084 233.864 567.796 227.003 569.188 217.258L573.663 190.412H571.972C569.321 195.118 565.741 199.328 561.234 203.04C556.726 206.752 551.39 209.669 545.225 211.79C539.061 213.911 532.233 214.972 524.742 214.972C513.54 214.972 503.762 212.386 495.41 207.216C487.058 201.979 481.026 193.892 477.313 182.955C473.601 171.951 473.17 157.798 476.021 140.497C479.004 122.666 484.307 107.983 491.93 96.4488C499.553 84.8485 508.436 76.2642 518.578 70.696C528.786 65.1278 539.226 62.3437 549.899 62.3437C557.919 62.3437 564.548 63.7358 569.785 66.5199C575.022 69.2377 579.132 72.7509 582.115 77.0596C585.097 81.3683 587.219 85.8428 588.478 90.4829H589.87L594.146 64.3324H642.569L617.115 217.656C615.06 230.649 610.055 241.586 602.1 250.469C594.146 259.351 583.971 266.08 571.575 270.653C559.179 275.227 545.358 277.514 530.112 277.514ZM547.214 179.574C553.114 179.574 558.45 178.016 563.222 174.901C567.995 171.785 572.006 167.311 575.254 161.477C578.502 155.644 580.789 148.651 582.115 140.497C583.44 132.211 583.44 125.085 582.115 119.119C580.855 113.087 578.402 108.447 574.757 105.199C571.111 101.951 566.305 100.327 560.339 100.327C554.307 100.327 548.937 101.984 544.231 105.298C539.591 108.613 535.68 113.286 532.498 119.318C529.383 125.284 527.195 132.344 525.936 140.497C524.61 148.651 524.51 155.644 525.637 161.477C526.83 167.311 529.217 171.785 532.796 174.901C536.442 178.016 541.248 179.574 547.214 179.574ZM713.741 13.4233L679.935 217.06H631.312L665.119 13.4233H713.741ZM694.083 217.06L719.537 64.3324H768.159L742.705 217.06H694.083ZM747.279 46.4346C740.385 46.4346 734.783 44.1477 730.475 39.5738C726.166 35 724.476 29.5312 725.404 23.1676C726.332 16.7377 729.58 11.2689 735.148 6.76133C740.716 2.25376 746.914 -2.6226e-05 753.742 -2.6226e-05C760.636 -2.6226e-05 766.171 2.25376 770.347 6.76133C774.589 11.2689 776.247 16.7377 775.319 23.1676C774.523 29.5312 771.341 35 765.773 39.5738C760.271 44.1477 754.106 46.4346 747.279 46.4346ZM907.492 110.966L863.643 112.159C863.709 108.911 862.98 106.061 861.455 103.608C859.931 101.089 857.776 99.1335 854.992 97.7414C852.208 96.3494 848.894 95.6534 845.049 95.6534C838.818 95.6534 833.217 97.0454 828.245 99.8295C823.34 102.614 820.589 106.226 819.992 110.668C819.528 113.054 820.191 115.142 821.981 116.932C823.771 118.655 827.748 120.18 833.913 121.506L862.549 127.074C877.265 129.991 887.937 135.062 894.566 142.287C901.261 149.446 903.648 158.925 901.725 170.724C900.002 180.8 895.56 189.517 888.401 196.875C881.309 204.233 872.26 209.934 861.256 213.977C850.319 217.955 838.221 219.943 824.964 219.943C802.559 219.943 785.655 215.436 774.254 206.42C762.918 197.339 757.615 185.308 758.345 170.327L805.674 169.133C805.873 174.768 807.762 179.01 811.342 181.861C814.988 184.645 819.926 186.103 826.157 186.236C832.985 186.368 838.884 184.943 843.856 181.96C848.827 178.977 851.612 175.298 852.208 170.923C852.606 168.073 851.645 165.852 849.325 164.261C847.071 162.67 842.862 161.245 836.697 159.986L810.845 154.915C795.996 152.064 785.257 146.695 778.629 138.807C772.066 130.852 769.812 120.71 771.867 108.381C773.591 98.57 777.634 90.2509 783.998 83.4233C790.428 76.5293 798.813 71.2926 809.154 67.713C819.561 64.1335 831.427 62.3437 844.751 62.3437C866.095 62.3437 882.203 66.6856 893.075 75.3693C904.012 83.9867 908.818 95.8522 907.492 110.966ZM964.545 129.957L950.028 217.06H901.406L935.213 13.4233H982.244L969.318 92.3721H971.008C975.914 82.9592 982.741 75.6013 991.491 70.2983C1000.24 64.9952 1010.38 62.3437 1021.92 62.3437C1032.52 62.3437 1041.41 64.7301 1048.57 69.5028C1055.72 74.2093 1060.8 80.8712 1063.78 89.4886C1066.76 98.106 1067.29 108.182 1065.37 119.716L1049.06 217.06H1000.44L1015.16 129.261C1016.48 120.776 1015.39 114.148 1011.87 109.375C1008.36 104.602 1002.73 102.216 994.971 102.216C989.867 102.216 985.161 103.343 980.852 105.597C976.61 107.784 973.063 110.933 970.213 115.043C967.362 119.152 965.473 124.124 964.545 129.957Z" fill="white"/>
</svg>
