<svg width="159" height="611" viewBox="0 0 159 611" fill="none" xmlns="http://www.w3.org/2000/svg">
<path d="M150.909 47.4432L34.5454 28.125V2.80142e-06L150.909 19.3182V47.4432ZM84.3181 72.4313L34.5454 64.1358V36.3517L121.818 50.8972V77.3176L105.795 74.704V75.6699C111.136 78.3972 115.322 82.3555 118.352 87.5449C121.42 92.7343 122.955 98.5676 122.955 105.045C122.955 111.143 121.591 116.238 118.864 120.329C116.136 124.42 112.311 127.318 107.386 129.022C102.5 130.727 96.7613 131.011 90.1704 129.874L34.5454 120.556V92.7722L84.7159 101.124C89.5265 101.958 93.2954 101.371 96.0227 99.3631C98.7878 97.3934 100.17 94.1737 100.17 89.704C100.17 86.7873 99.5265 84.1169 98.2386 81.6926C96.9886 79.3063 95.1894 77.2987 92.8409 75.6699C90.4924 74.079 87.6515 72.9994 84.3181 72.4313ZM121.818 191.794L101.364 188.328V133.272L121.818 136.738V191.794ZM142.727 151.681V179.465L61.9886 166.056C60.284 165.791 58.9015 165.828 57.8409 166.169C56.8181 166.548 56.0795 167.23 55.625 168.215C55.2083 169.238 55 170.488 55 171.965C55 172.988 55.1136 174.124 55.3409 175.374C55.5681 176.624 55.7386 177.571 55.8522 178.215L35.7954 179.124C35.3787 177.647 34.9053 175.658 34.375 173.158C33.8068 170.696 33.4469 167.817 33.2954 164.522C33.0303 157.855 33.8068 152.344 35.625 147.988C37.481 143.669 40.3598 140.62 44.2613 138.84C48.1628 137.097 53.0492 136.756 58.9204 137.817L142.727 151.681ZM32.8977 221.456C32.8977 212.327 34.6969 204.751 38.2954 198.728C41.9318 192.744 47.1022 188.539 53.8068 186.115C60.5492 183.691 68.5606 183.255 77.8409 184.808C86.856 186.323 94.7348 189.41 101.477 194.069C108.258 198.766 113.523 204.675 117.273 211.797C121.061 218.918 122.955 226.853 122.955 235.603C122.955 241.816 121.989 247.327 120.057 252.138C118.125 256.948 115.246 260.925 111.42 264.069C107.633 267.213 102.973 269.353 97.4431 270.49C91.9128 271.626 85.5681 271.588 78.409 270.376L71.4772 269.297V193.501L87.6136 196.058V246.058C90.5681 246.513 93.2007 246.266 95.5113 245.319C97.8219 244.372 99.6212 242.838 100.909 240.717C102.235 238.634 102.898 236.077 102.898 233.047C102.898 229.978 102.178 227.1 100.739 224.41C99.3371 221.759 97.4431 219.505 95.0568 217.649C92.6704 215.793 89.981 214.581 86.9886 214.013L70.4545 211.001C66.7803 210.395 63.6363 210.566 61.0227 211.513C58.409 212.459 56.4015 214.088 55 216.399C53.6363 218.709 52.9545 221.683 52.9545 225.319C52.9545 227.744 53.2765 230.016 53.9204 232.138C54.6022 234.259 55.606 236.153 56.9318 237.819C58.2954 239.524 59.9431 240.906 61.875 241.967L61.1363 267.308C55.4166 265.263 50.4356 262.1 46.1931 257.819C41.9886 253.539 38.7121 248.312 36.3636 242.138C34.053 236.001 32.8977 229.107 32.8977 221.456ZM-4.48227e-05 302.921C-4.48227e-05 294.588 1.15526 287.656 3.46586 282.126C5.77647 276.595 8.93935 272.466 12.9545 269.739C16.9697 267.012 21.5151 265.705 26.5909 265.819L28.0681 292.41C26.25 292.637 24.678 293.3 23.3522 294.398C22.0265 295.497 21.0227 297.069 20.3409 299.114C19.6212 301.16 19.2613 303.698 19.2613 306.728C19.2613 311.387 20.3977 315.44 22.6704 318.887C24.9431 322.334 28.8636 324.455 34.4318 325.251L49.7727 327.807V326.841C47.0833 325.326 44.678 323.281 42.5568 320.705C40.4356 318.129 38.7689 315.08 37.5568 311.557C36.3447 308.035 35.7386 304.133 35.7386 299.853C35.7386 293.451 37.2159 287.864 40.1704 283.091C43.1628 278.319 47.784 274.872 54.034 272.751C60.3219 270.629 68.409 270.383 78.2954 272.012C88.4848 273.716 96.875 276.747 103.466 281.103C110.095 285.459 115 290.535 118.182 296.33C121.364 302.163 122.955 308.129 122.955 314.228C122.955 318.811 122.159 322.599 120.568 325.591C119.015 328.584 117.008 330.932 114.545 332.637C112.083 334.341 109.526 335.554 106.875 336.273V337.069L121.818 339.512V367.182L34.2045 352.637C26.7803 351.463 20.5303 348.603 15.4545 344.057C10.3787 339.512 6.53405 333.698 3.92041 326.614C1.30677 319.531 -4.48227e-05 311.633 -4.48227e-05 302.921ZM55.9659 312.694C55.9659 316.065 56.856 319.114 58.6363 321.841C60.4166 324.569 62.9734 326.86 66.3068 328.716C69.6401 330.573 73.6363 331.879 78.2954 332.637C83.0303 333.395 87.1022 333.395 90.5113 332.637C93.9583 331.917 96.6098 330.516 98.4659 328.432C100.322 326.349 101.25 323.603 101.25 320.194C101.25 316.747 100.303 313.679 98.409 310.989C96.5151 308.338 93.8447 306.103 90.3977 304.285C86.9886 302.504 82.9545 301.254 78.2954 300.535C73.6363 299.777 69.6401 299.72 66.3068 300.364C62.9734 301.046 60.4166 302.41 58.6363 304.455C56.856 306.538 55.9659 309.285 55.9659 312.694ZM150.909 407.852L34.5454 388.534V360.75L150.909 380.068V407.852ZM34.5454 396.619L121.818 411.164V438.948L34.5454 424.403V396.619ZM132.045 427.016C132.045 423.077 133.352 419.876 135.966 417.414C138.58 414.952 141.705 413.986 145.341 414.516C149.015 415.047 152.14 416.903 154.716 420.085C157.292 423.266 158.58 426.808 158.58 430.71C158.58 434.649 157.292 437.812 154.716 440.198C152.14 442.623 149.015 443.57 145.341 443.039C141.705 442.585 138.58 440.766 135.966 437.585C133.352 434.441 132.045 430.918 132.045 427.016ZM95.1704 518.567L94.4886 493.51C96.3447 493.548 97.9734 493.131 99.375 492.26C100.814 491.389 101.932 490.158 102.727 488.567C103.523 486.976 103.92 485.082 103.92 482.885C103.92 479.325 103.125 476.124 101.534 473.283C99.9431 470.48 97.8787 468.908 95.3409 468.567C93.9772 468.302 92.784 468.681 91.7613 469.703C90.7765 470.726 89.9053 472.999 89.1477 476.522L85.9659 492.885C84.2992 501.294 81.4015 507.393 77.2727 511.181C73.1818 515.006 67.7651 516.37 61.0227 515.272C55.2651 514.287 50.284 511.749 46.0795 507.658C41.875 503.605 38.6174 498.434 36.3068 492.147C34.034 485.897 32.8977 478.984 32.8977 471.408C32.8977 458.605 35.4734 448.946 40.625 442.431C45.8143 435.953 52.6894 432.923 61.25 433.34L61.9318 460.385C58.7121 460.499 56.2878 461.578 54.659 463.624C53.0681 465.707 52.2348 468.529 52.159 472.09C52.0833 475.991 52.8977 479.362 54.6022 482.203C56.3068 485.044 58.409 486.635 60.909 486.976C62.5378 487.203 63.8068 486.654 64.7159 485.328C65.625 484.041 66.4394 481.635 67.159 478.112L70.0568 463.34C71.6856 454.855 74.7537 448.719 79.2613 444.931C83.8068 441.181 89.6022 439.893 96.6477 441.067C102.254 442.052 107.008 444.362 110.909 447.999C114.848 451.673 117.841 456.465 119.886 462.374C121.932 468.321 122.955 475.101 122.955 482.715C122.955 494.912 120.473 504.116 115.511 510.328C110.587 516.578 103.807 519.325 95.1704 518.567ZM84.3181 551.169L34.5454 542.873V515.089L150.909 534.407V561.282L105.795 553.896V554.862C111.174 557.665 115.379 561.566 118.409 566.566C121.439 571.566 122.955 577.362 122.955 583.953C122.955 590.013 121.591 595.089 118.864 599.18C116.174 603.271 112.367 606.169 107.443 607.873C102.519 609.578 96.7613 609.881 90.1704 608.782L34.5454 599.464V571.68L84.7159 580.089C89.5644 580.847 93.3522 580.222 96.0795 578.214C98.8068 576.207 100.17 572.987 100.17 568.555C100.17 565.638 99.5265 562.949 98.2386 560.487C96.9886 558.063 95.1894 556.036 92.8409 554.407C90.4924 552.779 87.6515 551.699 84.3181 551.169Z" fill="white"/>
</svg>
