<svg width="101" height="101" viewBox="0 0 101 101" fill="none" xmlns="http://www.w3.org/2000/svg">
<path fill-rule="evenodd" clip-rule="evenodd" d="M34.6465 100.09C32.542 100.09 30.7969 98.3447 30.7969 96.2402V3.84961C30.7969 1.74516 32.542 0 34.6465 0C36.7509 0 38.4961 1.74516 38.4961 3.84961V96.2402C38.4961 98.3447 36.7509 100.09 34.6465 100.09ZM19.248 79.5586C17.1436 79.5586 15.3984 77.8134 15.3984 75.709V24.3809C15.3984 22.2764 17.1436 20.5312 19.248 20.5312C21.3525 20.5312 23.0977 22.2764 23.0977 24.3809V75.709C23.0977 77.8134 21.3525 79.5586 19.248 79.5586ZM46.1953 80.8418C46.1953 82.9463 47.9405 84.6914 50.0449 84.6914C52.1494 84.6914 53.8945 82.9463 53.8945 80.8418V19.248C53.8945 17.1436 52.1494 15.3984 50.0449 15.3984C47.9405 15.3984 46.1953 17.1436 46.1953 19.248V80.8418ZM65.4434 69.293C63.3389 69.293 61.5938 67.5478 61.5938 65.4434V34.6465C61.5938 32.542 63.3389 30.7969 65.4434 30.7969C67.5478 30.7969 69.293 32.542 69.293 34.6465V65.4434C69.293 67.5478 67.5478 69.293 65.4434 69.293ZM76.9922 75.709C76.9922 77.8134 78.7373 79.5586 80.8418 79.5586C82.9463 79.5586 84.6914 77.8134 84.6914 75.709V24.3809C84.6914 22.2764 82.9463 20.5312 80.8418 20.5312C78.7373 20.5312 76.9922 22.2764 76.9922 24.3809V75.709ZM96.2402 59.0273C94.1358 59.0273 92.3906 57.2822 92.3906 55.1777V44.9121C92.3906 42.8077 94.1358 41.0625 96.2402 41.0625C98.3447 41.0625 100.09 42.8077 100.09 44.9121V55.1777C100.09 57.2822 98.3447 59.0273 96.2402 59.0273ZM0 55.1777C0 57.2822 1.74516 59.0273 3.84961 59.0273C5.95406 59.0273 7.69922 57.2822 7.69922 55.1777V44.9121C7.69922 42.8077 5.95406 41.0625 3.84961 41.0625C1.74516 41.0625 0 42.8077 0 44.9121V55.1777Z" fill="white"/>
</svg>
