<svg width="98" height="112" viewBox="0 0 98 112" fill="none" xmlns="http://www.w3.org/2000/svg">
<path d="M15.5625 20.0089C15.5625 14.7022 17.6706 9.61288 21.423 5.86048C25.1754 2.10808 30.2647 0 35.5714 0C40.8781 0 45.9675 2.10808 49.7199 5.86048C53.4723 9.61288 55.5804 14.7022 55.5804 20.0089V51.6853C50.6785 53.8271 46.363 57.1152 42.997 61.2727C39.631 65.4303 37.3131 70.3357 36.2384 75.576L35.5714 75.5893C30.2647 75.5893 25.1754 73.4812 21.423 69.7288C17.6706 65.9764 15.5625 60.8871 15.5625 55.5804V20.0089ZM35.6426 84.4821H35.5714C27.9062 84.4821 20.5549 81.4371 15.1348 76.017C9.71464 70.5969 6.66964 63.2456 6.66964 55.5804V52.2455C6.66964 51.3611 6.3183 50.5129 5.6929 49.8875C5.0675 49.2621 4.21927 48.9107 3.33482 48.9107C2.45037 48.9107 1.60215 49.2621 0.976746 49.8875C0.351346 50.5129 1.52131e-08 51.3611 1.52131e-08 52.2455V55.5804C-0.000258873 64.4373 3.30371 72.9759 9.26565 79.5258C15.2276 86.0757 23.4186 90.1658 32.2366 90.9962V103.379C32.2366 104.264 32.588 105.112 33.2134 105.738C33.8388 106.363 34.687 106.714 35.5714 106.714C36.4559 106.714 37.3041 106.363 37.9295 105.738C38.5549 105.112 38.9062 104.264 38.9062 103.379V96.8121C37.0352 92.9504 35.927 88.7638 35.6426 84.4821ZM68.9196 104.491C63.0233 104.491 57.3685 102.149 53.1991 97.9794C49.0298 93.8101 46.6875 88.1553 46.6875 82.2589C46.6875 76.3626 49.0298 70.7078 53.1991 66.5384C57.3685 62.3691 63.0233 60.0268 68.9196 60.0268C74.816 60.0268 80.4708 62.3691 84.6401 66.5384C88.8095 70.7078 91.1518 76.3626 91.1518 82.2589C91.1518 88.1553 88.8095 93.8101 84.6401 97.9794C80.4708 102.149 74.816 104.491 68.9196 104.491ZM68.9196 111.161C76.5849 111.161 83.9361 108.116 89.3563 102.696C94.7764 97.2754 97.8214 89.9242 97.8214 82.2589C97.8214 74.5937 94.7764 67.2424 89.3563 61.8223C83.9361 56.4021 76.5849 53.3571 68.9196 53.3571C61.2544 53.3571 53.9031 56.4021 48.483 61.8223C43.0629 67.2424 40.0179 74.5937 40.0179 82.2589C40.0179 89.9242 43.0629 97.2754 48.483 102.696C53.9031 108.116 61.2544 111.161 68.9196 111.161ZM68.9196 97.8214C73.0471 97.8214 77.0055 96.1818 79.924 93.2633C82.8425 90.3447 84.4821 86.3864 84.4821 82.2589C84.4821 78.1315 82.8425 74.1731 79.924 71.2546C77.0055 68.336 73.0471 66.6964 68.9196 66.6964C64.7922 66.6964 60.8338 68.336 57.9153 71.2546C54.9968 74.1731 53.3571 78.1315 53.3571 82.2589C53.3571 86.3864 54.9968 90.3447 57.9153 93.2633C60.8338 96.1818 64.7922 97.8214 68.9196 97.8214Z" fill="white"/>
</svg>
