<svg width="84" height="63" viewBox="0 0 84 63" fill="none" xmlns="http://www.w3.org/2000/svg">
<path fill-rule="evenodd" clip-rule="evenodd" d="M65.1578 25.3575C68.2891 26.1329 71.0705 27.9346 73.0583 30.4753C75.0461 33.0159 76.1257 36.1491 76.125 39.375V40.6875C76.125 44.5166 74.6039 48.1888 71.8964 50.8964C69.1888 53.6039 65.5166 55.125 61.6875 55.125H60.375C56.6297 55.1284 53.0299 53.6746 50.3374 51.0712C47.6449 48.4678 46.0707 44.9191 45.948 41.1758V41.16H45.9375V39.375C45.9375 38.6855 45.9848 38.01 46.0793 37.3485C46.1843 35.9765 46.3417 34.629 46.5517 33.306C47.1054 29.8401 48.0913 26.4572 49.4865 23.2365C51.9879 17.4669 55.8892 12.4125 60.837 8.53125L61.3515 8.13225C61.5689 7.9668 61.8343 7.87651 62.1075 7.875C63.084 7.875 63.714 8.9355 63.2625 9.80175C62.8678 10.5545 62.4828 11.3124 62.1075 12.075C61.3069 13.7171 60.5541 15.382 59.85 17.0677C58.7109 19.7685 57.7344 22.5349 56.9258 25.3522L57.2093 25.284C58.2488 25.0542 59.3103 24.938 60.375 24.9375H61.6875C62.888 24.941 64.0448 25.081 65.1578 25.3575ZM68.04 17.9813C72.6508 19.3506 76.6956 22.1733 79.5717 26.0285C82.4477 29.8838 84.001 34.5652 84 39.375V40.6875C84 46.6051 81.6492 52.2804 77.4648 56.4648C73.2804 60.6492 67.6051 63 61.6875 63H60.375C56.7596 63.0006 53.1981 62.1227 49.9972 60.4418C46.7963 58.7608 44.0519 56.3273 42 53.3505C39.9481 56.3273 37.2037 58.7608 34.0028 60.4418C30.8019 62.1227 27.2404 63.0006 23.625 63H22.3125C16.4723 63.0012 10.8644 60.7125 6.69269 56.6252C2.52102 52.538 0.118179 46.978 0 41.139L0 39.375C0 38.4125 0.06125 37.4622 0.18375 36.5243C1.2705 22.7692 7.31325 10.4528 18.4958 1.8795C20.089 0.660718 22.0391 0.000232853 24.045 0C31.0852 0 35.3115 7.48125 32.172 13.461C31.5892 14.5688 30.807 16.128 29.9775 17.976C34.1145 19.2045 37.7528 21.5985 40.5037 24.7853C43.3472 15.6683 48.9583 7.66265 56.5583 1.8795C58.1515 0.660718 60.1016 0.000232853 62.1075 0C69.1478 0 73.374 7.48125 70.2345 13.461C69.6517 14.5688 68.8695 16.128 68.04 17.976M27.09 25.3575C25.9541 25.08 24.7891 24.939 23.6198 24.9375H22.3073C21.1451 24.9389 19.9873 25.0781 18.858 25.3522C19.8148 22.0081 21.0078 18.7362 22.428 15.561C23.2868 13.6105 24.2113 11.6897 25.2 9.80175C25.3057 9.60211 25.3581 9.37856 25.3521 9.15272C25.3462 8.92689 25.282 8.70643 25.1658 8.51267C25.0497 8.3189 24.8855 8.1584 24.6891 8.04669C24.4928 7.93498 24.2709 7.87584 24.045 7.875C23.7718 7.87651 23.5064 7.9668 23.289 8.13225C21.5479 9.47902 19.9154 10.9606 18.4065 12.5632C15.3076 15.8941 12.8355 19.7571 11.109 23.9662C9.87976 26.9681 9.00241 30.1022 8.4945 33.306C8.2775 34.629 8.11825 35.9765 8.01675 37.3485C7.92594 38.0202 7.87859 38.6972 7.875 39.375V41.1547H7.88025V41.1758C8.00299 44.92 9.57786 48.4695 12.2715 51.073C14.9652 53.6766 18.5663 55.1297 22.3125 55.125H23.6302C27.4593 55.125 31.1315 53.6039 33.8391 50.8964C36.5467 48.1888 38.0677 44.5166 38.0677 40.6875V39.375C38.0677 32.6025 33.3953 26.9115 27.1005 25.3575" fill="#FF59DB"/>
</svg>
