<svg width="50" height="50" viewBox="0 0 50 50" fill="none" xmlns="http://www.w3.org/2000/svg">
<path d="M25 0C11.215 0 0 11.215 0 25C0 38.785 11.215 50 25 50C38.785 50 50 38.785 50 25C50 11.215 38.785 0 25 0ZM25 45C13.9725 45 5 36.0275 5 25C5 22.08 5.645 19.3125 6.7725 16.81C7.15917 17.035 7.53917 17.265 7.9125 17.5C8.9025 18.125 9.89 18.75 11.1275 19.22C12.3625 19.6875 13.8475 20 15.825 20C17.805 20 19.29 19.6875 20.5275 19.2175C21.765 18.7475 22.755 18.125 23.745 17.5C24.735 16.875 25.725 16.25 26.9625 15.78C28.2 15.31 29.6825 15 31.6625 15C33.6425 15 35.1275 15.3125 36.3625 15.7825C37.6 16.25 38.59 16.875 39.58 17.5C40.57 18.125 41.56 18.75 42.7975 19.22C43.2458 19.385 43.73 19.5275 44.25 19.6475C44.7275 21.3525 45 23.1425 45 25C45 36.0275 36.0275 45 25 45Z" fill="black"/>
<path d="M16.25 30C18.3211 30 20 28.3211 20 26.25C20 24.1789 18.3211 22.5 16.25 22.5C14.1789 22.5 12.5 24.1789 12.5 26.25C12.5 28.3211 14.1789 30 16.25 30Z" fill="black"/>
<path d="M33.75 30C35.8211 30 37.5 28.3211 37.5 26.25C37.5 24.1789 35.8211 22.5 33.75 22.5C31.6789 22.5 30 24.1789 30 26.25C30 28.3211 31.6789 30 33.75 30Z" fill="black"/>
</svg>
