<svg width="235" height="248" viewBox="0 0 235 248" fill="none" xmlns="http://www.w3.org/2000/svg">
<path d="M117.108 3.35986e-06C132.417 -0.00468544 147.325 4.89828 159.643 13.9893C171.962 23.0803 181.041 35.8805 185.55 50.5112C190.058 65.1419 189.758 80.8325 184.693 95.2801C179.629 109.728 170.066 122.171 157.409 130.784C179.378 138.842 198.432 153.29 212.12 172.269C225.807 191.248 233.501 213.89 234.211 237.279C234.277 238.577 234.084 239.875 233.642 241.098C233.199 242.32 232.518 243.442 231.636 244.397C230.755 245.353 229.691 246.123 228.508 246.662C227.325 247.2 226.047 247.498 224.747 247.536C223.448 247.574 222.154 247.352 220.941 246.884C219.729 246.415 218.622 245.709 217.686 244.807C216.75 243.905 216.004 242.825 215.49 241.631C214.977 240.436 214.708 239.151 214.698 237.851C213.923 212.487 203.302 188.421 185.086 170.753C166.87 153.085 142.491 143.204 117.114 143.204C91.7376 143.204 67.3582 153.085 49.1423 170.753C30.9264 188.421 20.3055 212.487 19.5303 237.851C19.4526 240.441 18.3495 242.893 16.4637 244.669C14.5779 246.445 12.0637 247.399 9.47445 247.321C6.88516 247.244 4.43278 246.141 2.6568 244.255C0.880816 242.369 -0.0732814 239.855 0.00439738 237.266C0.717068 213.879 8.41218 191.241 22.0994 172.264C35.7866 153.288 54.8396 138.841 76.8062 130.784C64.1494 122.171 54.5868 109.728 49.5221 95.2801C44.4573 80.8325 44.1572 65.1419 48.6656 50.5112C53.1741 35.8805 62.2538 23.0803 74.572 13.9893C86.8901 4.89828 101.798 -0.00468544 117.108 3.35986e-06ZM65.0386 71.5949C65.0386 85.4045 70.5245 98.6485 80.2893 108.413C90.0541 118.178 103.298 123.664 117.108 123.664C130.917 123.664 144.161 118.178 153.926 108.413C163.691 98.6485 169.177 85.4045 169.177 71.5949C169.177 57.7854 163.691 44.5414 153.926 34.7766C144.161 25.0117 130.917 19.5259 117.108 19.5259C103.298 19.5259 90.0541 25.0117 80.2893 34.7766C70.5245 44.5414 65.0386 57.7854 65.0386 71.5949Z" fill="white"/>
</svg>
