<svg width="50" height="50" viewBox="0 0 50 50" fill="none" xmlns="http://www.w3.org/2000/svg">
<path opacity="0.3" d="M11.3751 14.15C11.9964 12.899 12.9557 11.8472 14.1444 11.1137C15.333 10.3802 16.7034 9.99436 18.1001 10H31.9251C34.7751 10 37.3501 11.6 38.6251 14.15C40.9751 18.825 42.7751 19.35 44.2751 19.75C41.9501 11.275 34.2001 5 25.0001 5C15.8001 5 8.0501 11.275 5.7251 19.75C7.4251 19.3 9.0501 18.8 11.3751 14.15Z" fill="black"/>
<path d="M25 0C11.2 0 0 11.2 0 25C0 38.8 11.2 50 25 50C38.8 50 50 38.8 50 25C50 11.2 38.8 0 25 0ZM25 5C34.2 5 41.95 11.275 44.275 19.75C42.775 19.35 40.95 18.825 38.625 14.15C38.0037 12.899 37.0444 11.8472 35.8557 11.1137C34.6671 10.3802 33.2967 9.99436 31.9 10H18.1C15.225 10 12.65 11.6 11.375 14.15C9.05 18.8 7.425 19.3 5.725 19.75C8.05 11.275 15.8 5 25 5ZM25 45C13.975 45 5 36.025 5 25V24.925C10.775 24.375 13.575 20.95 15.85 16.4C16.275 15.525 17.125 15 18.1 15H31.925C32.875 15 33.725 15.525 34.15 16.375C36.4 20.875 39.125 24.35 45 24.9V24.975C45 36.025 36.025 45 25 45Z" fill="black"/>
<path d="M17.5 30.625C19.2259 30.625 20.625 29.2259 20.625 27.5C20.625 25.7741 19.2259 24.375 17.5 24.375C15.7741 24.375 14.375 25.7741 14.375 27.5C14.375 29.2259 15.7741 30.625 17.5 30.625Z" fill="black"/>
<path d="M32.5 30.625C34.2259 30.625 35.625 29.2259 35.625 27.5C35.625 25.7741 34.2259 24.375 32.5 24.375C30.7741 24.375 29.375 25.7741 29.375 27.5C29.375 29.2259 30.7741 30.625 32.5 30.625Z" fill="black"/>
</svg>
